<?xml version="1.0" encoding="UTF-8" standalone="no"?>
<svg
   xmlns:dc="http://purl.org/dc/elements/1.1/"
   xmlns:cc="http://creativecommons.org/ns#"
   xmlns:rdf="http://www.w3.org/1999/02/22-rdf-syntax-ns#"
   xmlns:svg="http://www.w3.org/2000/svg"
   xmlns="http://www.w3.org/2000/svg"
   viewBox="0 0 1920 3056"
   height="3056"
   width="1920"
   xml:space="preserve"
   id="svg2"
   version="1.1"><metadata
     id="metadata8"><rdf:RDF><cc:Work
         rdf:about=""><dc:format>image/svg+xml</dc:format><dc:type
           rdf:resource="http://purl.org/dc/dcmitype/StillImage" /></cc:Work></rdf:RDF></metadata><defs
     id="defs6"><clipPath
       id="clipPath18"
       clipPathUnits="userSpaceOnUse"><path
         id="path16"
         d="M 0,0 H 1440 V 2292 H 0 Z" /></clipPath><mask
       id="mask20"
       height="1"
       width="1"
       y="0"
       x="0"
       maskUnits="userSpaceOnUse"><g
         id="g28"><g
           id="g26"
           clip-path="url(#clipPath18)"><g
             id="g24"><path
               id="path22"
               style="fill:#000000;fill-opacity:1;fill-rule:nonzero;stroke:none"
               d="M 0,2292 H 1440 V 0 H 0 Z" /></g></g></g></mask><clipPath
       id="clipPath36"
       clipPathUnits="userSpaceOnUse"><path
         id="path34"
         d="M 0,0 H 1440 V 2292 H 0 Z" /></clipPath><clipPath
       id="clipPath40"
       clipPathUnits="userSpaceOnUse"><path
         style="clip-rule:evenodd"
         id="path38"
         d="M 576,1346.5 C 576,1145.1921 392.66058,982 166.5,982 -59.660599,982 -243,1145.1921 -243,1346.5 -243,1547.8079 -59.660599,1711 166.5,1711 392.66058,1711 576,1547.8079 576,1346.5 Z" /></clipPath><clipPath
       id="clipPath44"
       clipPathUnits="userSpaceOnUse"><path
         style="clip-rule:evenodd"
         id="path42"
         d="M 1646,1176.5 C 1646,975.19214 1462.6606,812 1236.5,812 1010.3394,812 827,975.19214 827,1176.5 c 0,201.3079 183.3394,364.5 409.5,364.5 226.1606,0 409.5,-163.1921 409.5,-364.5 z" /></clipPath><clipPath
       id="clipPath48"
       clipPathUnits="userSpaceOnUse"><path
         id="path46"
         d="M 0,0 H 1440 V 2292 H 0 Z" /></clipPath><clipPath
       id="clipPath52"
       clipPathUnits="userSpaceOnUse"><path
         style="clip-rule:evenodd"
         id="path50"
         d="M 827,447.5 C 827,246.19214 643.66058,83 417.5,83 191.3394,83 8,246.19214 8,447.5 8,648.80774 191.3394,812 417.5,812 643.66058,812 827,648.80774 827,447.5 Z" /></clipPath><clipPath
       id="clipPath56"
       clipPathUnits="userSpaceOnUse"><path
         style="clip-rule:evenodd"
         id="path54"
         d="m 1716,2049.5 c 0,-201.3079 -183.3394,-364.5 -409.5,-364.5 -226.1606,0 -409.5,163.1921 -409.5,364.5 0,201.3079 183.3394,364.5 409.5,364.5 226.1606,0 409.5,-163.1921 409.5,-364.5 z" /></clipPath></defs><g
     transform="matrix(1.3333333,0,0,-1.3333333,0,3056)"
     id="g10"><g
       id="g12"><g
         id="g14" /><g
         id="g30"><g
           id="g32" /><g
           id="g198"><g
             id="g196"
             clip-path="url(#clipPath36)"><g
               id="g60"><path
                 id="path58"
                 style="fill:#ffffff;fill-opacity:1;fill-rule:nonzero;stroke:none"
                 d="M 0,2292 H 1440 V 0 H 0 Z" /></g><g
               id="g72"><g
                 id="g64"
                 transform="translate(-243,982)"><path
                   id="path62"
                   style="fill:#2255da;fill-opacity:1;fill-rule:nonzero;stroke:none"
                   d="M 819,364.5 C 819,163.1922 635.66058,0 409.5,0 183.3394,0 0,163.1922 0,364.5 0,565.8078 183.3394,729 409.5,729 635.66058,729 819,565.8078 819,364.5 Z" /></g><g
                 id="g70"
                 clip-path="url(#clipPath40)"><g
                   id="g68"
                   transform="translate(-243,982)"><path
                     id="path66"
                     style="fill:#000000;fill-opacity:1;fill-rule:nonzero;stroke:none"
                     d="M 818,364.5 C 818,163.85077 635.22095,1 409.5,1 V -1 C 636.10028,-1 820,162.53363 820,364.5 Z M 409.5,1 C 183.77905,1 1,163.85077 1,364.5 H -1 C -1,162.53363 182.89973,-1 409.5,-1 Z M 1,364.5 C 1,565.14923 183.77905,728 409.5,728 v 2 C 182.89973,730 -1,566.46631 -1,364.5 Z M 409.5,728 C 635.22095,728 818,565.14923 818,364.5 h 2 C 820,566.46631 636.10028,730 409.5,730 Z" /></g></g></g><g
               id="g84"><g
                 id="g76"
                 transform="translate(827,812)"><path
                   id="path74"
                   style="fill:#2255da;fill-opacity:1;fill-rule:nonzero;stroke:none"
                   d="M 819,364.5 C 819,163.1922 635.66058,0 409.5,0 183.3394,0 0,163.1922 0,364.5 0,565.8078 183.3394,729 409.5,729 635.66058,729 819,565.8078 819,364.5 Z" /></g><g
                 id="g82"
                 clip-path="url(#clipPath44)"><g
                   id="g80"
                   transform="translate(827,812)"><path
                     id="path78"
                     style="fill:#000000;fill-opacity:1;fill-rule:nonzero;stroke:none"
                     d="M 818,364.5 C 818,163.85077 635.22095,1 409.5,1 V -1 C 636.10028,-1 820,162.53363 820,364.5 Z M 409.5,1 C 183.77905,1 1,163.85077 1,364.5 H -1 C -1,162.53363 182.89973,-1 409.5,-1 Z M 1,364.5 C 1,565.14923 183.77905,728 409.5,728 v 2 C 182.89973,730 -1,566.46631 -1,364.5 Z M 409.5,728 C 635.22095,728 818,565.14923 818,364.5 h 2 C 820,566.46631 636.10028,730 409.5,730 Z" /></g></g></g><g
               id="g104"><g
                 id="g86" /><g
                 id="g102"><g
                   style="opacity:0.6"
                   id="g100"
                   clip-path="url(#clipPath48)"><g
                     id="g90"
                     transform="rotate(27.366707,-3539.5941,1716.4882)"><path
                       id="path88"
                       style="fill:#ffffff;fill-opacity:1;fill-rule:nonzero;stroke:none"
                       d="m 16.68988,13.732018 c 0,-4.311991 -3.736157,-7.80755 -8.34494,-7.80755 C 3.736157,5.924468 0,9.420027 0,13.732018 c 0,4.311988 3.736157,7.807548 8.34494,7.807548 4.608783,0 8.34494,-3.49556 8.34494,-7.807548 z" /></g><g
                     id="g94"
                     transform="rotate(27.366707,-3539.5941,1716.4882)"><path
                       id="path92"
                       style="fill:#ffffff;fill-opacity:1;fill-rule:nonzero;stroke:none"
                       d="m 16.68988,13.732018 c 0,-4.311991 -3.736157,-7.80755 -8.34494,-7.80755 C 3.736157,5.924468 0,9.420027 0,13.732018 c 0,4.311988 3.736157,7.807548 8.34494,7.807548 4.608783,0 8.34494,-3.49556 8.34494,-7.807548 z" /></g><g
                     id="g98"
                     transform="rotate(27.366707,-3539.5941,1716.4882)"><path
                       id="path96"
                       style="fill:#ffffff;fill-opacity:1;fill-rule:nonzero;stroke:none"
                       d="m 16.68988,13.732018 c 0,-4.311991 -3.736157,-7.80755 -8.34494,-7.80755 C 3.736157,5.924468 0,9.420027 0,13.732018 c 0,4.311988 3.736157,7.807548 8.34494,7.807548 4.608783,0 8.34494,-3.49556 8.34494,-7.807548 z" /></g></g></g></g><g
               id="g110"><g
                 id="g108"
                 transform="translate(121,1389)"><path
                   id="path106"
                   style="fill:#ffffff;fill-opacity:0.37000002;fill-rule:nonzero;stroke:none"
                   d="M 291,125 C 291,55.964401 225.85744,0 145.5,0 65.14257,0 0,55.964401 0,125 0,194.0356 65.14257,250 145.5,250 225.85744,250 291,194.0356 291,125 Z" /></g></g><g
               id="g116"><g
                 id="g114"
                 transform="translate(897,1051)"><path
                   id="path112"
                   style="fill:#ffffff;fill-opacity:0.37000002;fill-rule:nonzero;stroke:none"
                   d="M 291,125 C 291,55.964401 225.85744,0 145.5,0 65.14257,0 0,55.964401 0,125 0,194.0356 65.14257,250 145.5,250 225.85744,250 291,194.0356 291,125 Z" /></g></g><g
               id="g128"><g
                 id="g120"
                 transform="translate(8,83)"><path
                   id="path118"
                   style="fill:#2255da;fill-opacity:1;fill-rule:nonzero;stroke:none"
                   d="M 819,364.5 C 819,163.1922 635.66058,0 409.5,0 183.3394,0 0,163.1922 0,364.5 0,565.8078 183.3394,729 409.5,729 635.66058,729 819,565.8078 819,364.5 Z" /></g><g
                 id="g126"
                 clip-path="url(#clipPath52)"><g
                   id="g124"
                   transform="translate(8,83)"><path
                     id="path122"
                     style="fill:#000000;fill-opacity:1;fill-rule:nonzero;stroke:none"
                     d="M 818,364.5 C 818,163.85077 635.22095,1 409.5,1 V -1 C 636.10028,-1 820,162.53363 820,364.5 Z M 409.5,1 C 183.77905,1 1,163.85077 1,364.5 H -1 C -1,162.53363 182.89973,-1 409.5,-1 Z M 1,364.5 C 1,565.14923 183.77905,728 409.5,728 v 2 C 182.89973,730 -1,566.46631 -1,364.5 Z M 409.5,728 C 635.22095,728 818,565.14923 818,364.5 h 2 C 820,566.46631 636.10028,730 409.5,730 Z" /></g></g></g><g
               id="g134"><g
                 id="g132"
                 transform="translate(263,533)"><path
                   id="path130"
                   style="fill:#ffffff;fill-opacity:0.37000002;fill-rule:nonzero;stroke:none"
                   d="M 291,125 C 291,55.964401 225.85744,0 145.5,0 65.14257,0 0,55.964401 0,125 0,194.0356 65.14257,250 145.5,250 225.85744,250 291,194.0356 291,125 Z" /></g></g><g
               id="g140"><g
                 id="g138"
                 transform="translate(8,1233)"><path
                   id="path136"
                   style="fill:#faff00;fill-opacity:0.37000002;fill-rule:nonzero;stroke:none"
                   d="M 290,113 C 290,50.591827 225.0813,0 145,0 64.918709,0 0,50.591827 0,113 c 0,62.40817 64.918709,113 145,113 80.0813,0 145,-50.59183 145,-113 z" /></g></g><g
               id="g146"><g
                 id="g144"
                 transform="translate(1212,943)"><path
                   id="path142"
                   style="fill:#faff00;fill-opacity:0.37000002;fill-rule:nonzero;stroke:none"
                   d="M 290,113 C 290,50.591827 225.0813,0 145,0 64.918709,0 0,50.591827 0,113 c 0,62.40817 64.918709,113 145,113 80.0813,0 145,-50.59183 145,-113 z" /></g></g><g
               id="g152"><g
                 id="g150"
                 transform="translate(516,807)"><path
                   id="path148"
                   style="fill:#ffa800;fill-opacity:0.37000002;fill-rule:nonzero;stroke:none"
                   d="M 290,113 C 290,50.591827 225.0813,0 145,0 64.918709,0 0,50.591827 0,113 c 0,62.40817 64.918709,113 145,113 80.0813,0 145,-50.59183 145,-113 z" /></g></g><g
               id="g158"><g
                 id="g156"
                 transform="translate(1182,180)"><path
                   id="path154"
                   style="fill:#ffa800;fill-opacity:0.37000002;fill-rule:nonzero;stroke:none"
                   d="M 290,113 C 290,50.591827 225.0813,0 145,0 64.918709,0 0,50.591827 0,113 c 0,62.40817 64.918709,113 145,113 80.0813,0 145,-50.59183 145,-113 z" /></g></g><g
               id="g164"><g
                 id="g162"
                 transform="translate(21,647)"><path
                   id="path160"
                   style="fill:#ffa800;fill-opacity:0.37000002;fill-rule:nonzero;stroke:none"
                   d="M 290,113 C 290,50.591827 225.0813,0 145,0 64.918709,0 0,50.591827 0,113 c 0,62.40817 64.918709,113 145,113 80.0813,0 145,-50.59183 145,-113 z" /></g></g><g
               id="g170"><g
                 id="g168"
                 transform="translate(627,1356)"><path
                   id="path166"
                   style="fill:#ffa800;fill-opacity:0.37000002;fill-rule:nonzero;stroke:none"
                   d="M 290,113 C 290,50.591827 225.0813,0 145,0 64.918709,0 0,50.591827 0,113 c 0,62.40817 64.918709,113 145,113 80.0813,0 145,-50.59183 145,-113 z" /></g></g><g
               id="g176"><g
                 id="g174"
                 transform="translate(-40,2066)"><path
                   id="path172"
                   style="fill:#ffa800;fill-opacity:0.37000002;fill-rule:nonzero;stroke:none"
                   d="M 290,113 C 290,50.591827 225.0813,0 145,0 64.918709,0 0,50.591827 0,113 c 0,62.40817 64.918709,113 145,113 80.0813,0 145,-50.59183 145,-113 z" /></g></g><g
               id="g182"><g
                 id="g180"
                 transform="translate(576,325)"><path
                   id="path178"
                   style="fill:#faff00;fill-opacity:0.37000002;fill-rule:nonzero;stroke:none"
                   d="M 290,113 C 290,50.591827 225.0813,0 145,0 64.918709,0 0,50.591827 0,113 c 0,62.40817 64.918709,113 145,113 80.0813,0 145,-50.59183 145,-113 z" /></g></g><g
               id="g194"><g
                 id="g186"
                 transform="translate(897,1685)"><path
                   id="path184"
                   style="fill:#2255da;fill-opacity:1;fill-rule:nonzero;stroke:none"
                   d="M 819,364.5 C 819,163.1922 635.66058,0 409.5,0 183.3394,0 0,163.1922 0,364.5 0,565.8078 183.3394,729 409.5,729 635.66058,729 819,565.8078 819,364.5 Z" /></g><g
                 id="g192"
                 clip-path="url(#clipPath56)"><g
                   id="g190"
                   transform="translate(897,1685)"><path
                     id="path188"
                     style="fill:#000000;fill-opacity:1;fill-rule:nonzero;stroke:none"
                     d="M 818,364.5 C 818,163.85077 635.22095,1 409.5,1 V -1 C 636.10028,-1 820,162.53363 820,364.5 Z M 409.5,1 C 183.77905,1 1,163.85077 1,364.5 H -1 C -1,162.53363 182.89973,-1 409.5,-1 Z M 1,364.5 C 1,565.14923 183.77905,728 409.5,728 v 2 C 182.89973,730 -1,566.46631 -1,364.5 Z M 409.5,728 C 635.22095,728 818,565.14923 818,364.5 h 2 C 820,566.46631 636.10028,730 409.5,730 Z" /></g></g></g></g></g></g></g></g></svg>